<svg width="495" height="622" viewBox="0 0 495 622" fill="none" xmlns="http://www.w3.org/2000/svg">
<g filter="url(#filter0_i)">
<ellipse cx="248" cy="459.5" rx="200" ry="162.5" fill="white"/>
</g>
<path d="M447.75 459.5C447.75 549.062 358.37 621.75 248 621.75C137.63 621.75 48.25 549.062 48.25 459.5C48.25 369.938 137.63 297.25 248 297.25C358.37 297.25 447.75 369.938 447.75 459.5Z" stroke="black" stroke-width="0.5"/>
<g filter="url(#filter1_d)">
<ellipse cx="248" cy="284.875" rx="150" ry="121.875" fill="white"/>
<path d="M397.75 284.875C397.75 352.001 330.756 406.5 248 406.5C165.244 406.5 98.25 352.001 98.25 284.875C98.25 217.749 165.244 163.25 248 163.25C330.756 163.25 397.75 217.749 397.75 284.875Z" stroke="black" stroke-width="0.5"/>
</g>
<circle cx="288.5" cy="219.5" r="7.5" fill="black"/>
<circle cx="288.5" cy="219.5" r="7.5" fill="black"/>
<circle cx="288.5" cy="219.5" r="7.5" fill="black"/>
<g filter="url(#filter2_d)">
<ellipse cx="253" cy="168.5" rx="100" ry="87.5" fill="white"/>
<path d="M352.75 168.5C352.75 216.657 308.123 255.75 253 255.75C197.877 255.75 153.25 216.657 153.25 168.5C153.25 120.343 197.877 81.25 253 81.25C308.123 81.25 352.75 120.343 352.75 168.5Z" stroke="black" stroke-width="0.5"/>
</g>
<path d="M301.325 58.35C301.475 56.775 301.55 55.2 301.55 53.625C301.55 27.9 290.825 0 280.1 0C269.375 0 258.65 10.725 248 10.725C237.275 10.725 226.55 0 215.825 0C205.1 0 194.45 27.375 194.45 53.625C194.45 55.2 194.45 56.775 194.6 58.35C212.15 62.325 230 64.35 248 64.275C266.375 64.275 284.225 62.25 301.325 58.35ZM183.875 105.3C225.5 117.825 270.2 117.9 312.05 105.3C315.2 104.25 317.975 102.225 319.925 99.525C321.875 96.825 323 93.525 323 90.225C323 86.85 321.95 83.625 320.075 80.85C318.125 78.15 315.5 76.125 312.2 75C291.95 81.45 270.5 84.825 248 84.825C225.5 84.825 203.975 81.45 183.725 75C180.5 76.125 177.875 78.225 175.925 80.925C174.05 83.625 173 86.85 173 90.225C173 97.275 177.575 103.2 183.875 105.3Z" fill="black"/>
<circle cx="210" cy="148" r="15" fill="black"/>
<circle cx="210" cy="148" r="15" fill="black"/>
<circle cx="210" cy="148" r="15" fill="black"/>
<circle cx="281" cy="148" r="15" fill="black"/>
<circle cx="281" cy="148" r="15" fill="black"/>
<circle cx="281" cy="148" r="15" fill="black"/>
<circle cx="217.5" cy="219.5" r="7.5" fill="black"/>
<circle cx="217.5" cy="219.5" r="7.5" fill="black"/>
<circle cx="217.5" cy="219.5" r="7.5" fill="black"/>
<circle cx="253.5" cy="194.5" r="7.5" fill="black"/>
<circle cx="253.5" cy="194.5" r="7.5" fill="black"/>
<circle cx="253.5" cy="194.5" r="7.5" fill="black"/>
<circle cx="232.5" cy="203.5" r="7.5" fill="black"/>
<circle cx="232.5" cy="203.5" r="7.5" fill="black"/>
<circle cx="232.5" cy="203.5" r="7.5" fill="black"/>
<circle cx="288.5" cy="219.5" r="7.5" fill="black"/>
<circle cx="288.5" cy="219.5" r="7.5" fill="black"/>
<circle cx="288.5" cy="219.5" r="7.5" fill="black"/>
<circle cx="274.5" cy="203.5" r="7.5" fill="black"/>
<circle cx="274.5" cy="203.5" r="7.5" fill="black"/>
<circle cx="274.5" cy="203.5" r="7.5" fill="black"/>
<line x1="205.423" y1="119.094" x2="232.612" y2="131.772" stroke="black" stroke-width="2"/>
<line x1="265.577" y1="131.772" x2="292.767" y2="119.094" stroke="black" stroke-width="2"/>
<path d="M196.715 180.94C194.532 180.888 194.001 177.874 196.034 177.078L249.916 155.987C251.093 155.527 252.396 156.259 252.615 157.503L256.579 179.983C256.798 181.227 255.824 182.361 254.561 182.33L196.715 180.94Z" fill="#E29578"/>
<circle cx="253.5" cy="341.5" r="7.5" fill="black"/>
<circle cx="253.5" cy="341.5" r="7.5" fill="black"/>
<circle cx="253.5" cy="341.5" r="7.5" fill="black"/>
<circle cx="253.5" cy="385.5" r="7.5" fill="black"/>
<circle cx="253.5" cy="385.5" r="7.5" fill="black"/>
<circle cx="253.5" cy="385.5" r="7.5" fill="black"/>
<circle cx="253.5" cy="297.5" r="7.5" fill="black"/>
<circle cx="253.5" cy="297.5" r="7.5" fill="black"/>
<circle cx="253.5" cy="297.5" r="7.5" fill="black"/>
<line y1="-2.5" x2="176.581" y2="-2.5" transform="matrix(0.651258 0.758857 0.758857 -0.651258 379.301 267)" stroke="#A46046" stroke-width="5"/>
<line y1="-2.5" x2="30" y2="-2.5" transform="matrix(0 1 1 0 432.301 328)" stroke="#A46046" stroke-width="5"/>
<line y1="-2.5" x2="28.6585" y2="-2.5" transform="matrix(0.994471 -0.105015 -0.105015 -0.994471 408.801 305.01)" stroke="#A46046" stroke-width="5"/>
<line y1="-2.5" x2="30" y2="-2.5" transform="matrix(0.5 -0.866025 -0.866025 -0.5 473.301 379.981)" stroke="#A46046" stroke-width="5"/>
<line y1="-2.5" x2="29.0751" y2="-2.5" transform="matrix(0.938993 0.343937 0.343937 -0.938993 379 267)" stroke="#A46046" stroke-width="5"/>
<line x1="116.897" y1="268.628" x2="1.89714" y2="402.628" stroke="#A46046" stroke-width="5"/>
<line x1="64.5" y1="328" x2="64.5" y2="358" stroke="#A46046" stroke-width="5"/>
<line x1="85.2375" y1="307.496" x2="56.7375" y2="304.486" stroke="#A46046" stroke-width="5"/>
<line x1="18.8349" y1="381.231" x2="3.83494" y2="355.25" stroke="#A46046" stroke-width="5"/>
<line x1="116.161" y1="269.347" x2="88.8598" y2="279.347" stroke="#A46046" stroke-width="5"/>
<defs>
<filter id="filter0_i" x="46" y="297" width="402" height="325" filterUnits="userSpaceOnUse" color-interpolation-filters="sRGB">
<feFlood flood-opacity="0" result="BackgroundImageFix"/>
<feBlend mode="normal" in="SourceGraphic" in2="BackgroundImageFix" result="shape"/>
<feColorMatrix in="SourceAlpha" type="matrix" values="0 0 0 0 0 0 0 0 0 0 0 0 0 0 0 0 0 0 127 0" result="hardAlpha"/>
<feMorphology radius="2" operator="erode" in="SourceAlpha" result="effect1_innerShadow"/>
<feOffset dx="-3"/>
<feComposite in2="hardAlpha" operator="arithmetic" k2="-1" k3="1"/>
<feColorMatrix type="matrix" values="0 0 0 0 0 0 0 0 0 0 0 0 0 0 0 0 0 0 0.25 0"/>
<feBlend mode="normal" in2="shape" result="effect1_innerShadow"/>
</filter>
<filter id="filter1_d" x="95" y="163" width="306" height="250.75" filterUnits="userSpaceOnUse" color-interpolation-filters="sRGB">
<feFlood flood-opacity="0" result="BackgroundImageFix"/>
<feColorMatrix in="SourceAlpha" type="matrix" values="0 0 0 0 0 0 0 0 0 0 0 0 0 0 0 0 0 0 127 0"/>
<feOffset dy="4"/>
<feGaussianBlur stdDeviation="1.5"/>
<feColorMatrix type="matrix" values="0 0 0 0 0 0 0 0 0 0 0 0 0 0 0 0 0 0 0.25 0"/>
<feBlend mode="normal" in2="BackgroundImageFix" result="effect1_dropShadow"/>
<feBlend mode="normal" in="SourceGraphic" in2="effect1_dropShadow" result="shape"/>
</filter>
<filter id="filter2_d" x="149" y="81" width="208" height="183" filterUnits="userSpaceOnUse" color-interpolation-filters="sRGB">
<feFlood flood-opacity="0" result="BackgroundImageFix"/>
<feColorMatrix in="SourceAlpha" type="matrix" values="0 0 0 0 0 0 0 0 0 0 0 0 0 0 0 0 0 0 127 0"/>
<feOffset dy="4"/>
<feGaussianBlur stdDeviation="2"/>
<feColorMatrix type="matrix" values="0 0 0 0 0 0 0 0 0 0 0 0 0 0 0 0 0 0 0.25 0"/>
<feBlend mode="normal" in2="BackgroundImageFix" result="effect1_dropShadow"/>
<feBlend mode="normal" in="SourceGraphic" in2="effect1_dropShadow" result="shape"/>
</filter>
</defs>
</svg>
